<svg id="Items" xmlns="http://www.w3.org/2000/svg" xmlns:xlink="http://www.w3.org/1999/xlink" viewBox="0 0 335.99 235.19"><defs><style>.cls-1{fill:#596374;}.cls-15,.cls-18,.cls-2{fill:#fff;}.cls-3{fill:#ebedf4;}.cls-4{fill:#1d1d1b;opacity:0.14;}.cls-5{fill:#ddd;}.cls-6{clip-path:url(#clip-path);}.cls-7,.cls-8{fill:#221f1f;}.cls-7{opacity:0.2;}.cls-8{opacity:0.1;}.cls-9{clip-path:url(#clip-path-2);}.cls-10{fill:#9fa3a9;}.cls-11{fill:#8fd5fb;}.cls-12{fill:#f05751;}.cls-13{fill:#ffce35;}.cls-14{fill:#dbae31;}.cls-15{opacity:0.5;}.cls-16,.cls-18{opacity:0.4;}.cls-17{fill:#2f3b3b;}</style><clipPath id="clip-path"><rect class="cls-1" x="142.74" y="18.13" width="178.64" height="109.56" rx="3.24" ry="3.24"/></clipPath><clipPath id="clip-path-2"><path class="cls-2" d="M319,124.22a0.81,0.81,0,0,1-.81.81H232.33V20.82h85.83a0.81,0.81,0,0,1,.81.81v102.6Z"/></clipPath></defs><title>D_23</title><rect id="background" class="cls-3" width="335.99" height="235.19"/><g id="envelope"><rect class="cls-4" x="105.08" y="155.5" width="127.99" height="64"/><polygon class="cls-5" points="227.97 155.5 99.97 155.5 163.97 187.5 227.97 155.5"/><polygon class="cls-2" points="163.97 187.5 99.97 155.5 99.97 219.5 227.97 219.5 227.97 155.5 163.97 187.5"/></g><g id="book"><path class="cls-4" d="M321.57,18.13H149.42a3.24,3.24,0,0,0-3.24,3.24V124.45a3.24,3.24,0,0,0,3.24,3.24H321.57a3.24,3.24,0,0,0,3.24-3.24V21.37A3.24,3.24,0,0,0,321.57,18.13Z"/><rect class="cls-1" x="142.74" y="18.13" width="178.64" height="109.56" rx="3.24" ry="3.24"/><g class="cls-6"><path class="cls-1" d="M318.13,18.13H146a3.24,3.24,0,0,0-3.24,3.24V124.45a3.24,3.24,0,0,0,3.24,3.24H318.13a3.24,3.24,0,0,0,3.24-3.24V21.37A3.24,3.24,0,0,0,318.13,18.13Z"/></g><path class="cls-2" d="M145.8,124.22a0.81,0.81,0,0,0,.81.81h85.83V20.82H146.62a0.81,0.81,0,0,0-.81.81v102.6Z"/><rect class="cls-7" x="232.03" y="20.82" width="0.82" height="104.18"/><rect class="cls-8" x="232.38" y="20.82" width="0.9" height="104.22"/><rect class="cls-5" x="147.67" y="20.82" width="1.68" height="104.22"/><rect class="cls-5" x="151.29" y="20.82" width="1.68" height="104.22"/><path class="cls-2" d="M319,124.22a0.81,0.81,0,0,1-.81.81H232.33V20.82h85.83a0.81,0.81,0,0,1,.81.81v102.6Z"/><g class="cls-9"><path class="cls-2" d="M319,124.22a0.81,0.81,0,0,1-.81.81H232.33V20.82h85.83a0.81,0.81,0,0,1,.81.81v102.6Z"/></g><rect class="cls-10" x="231.58" y="20.82" width="1.68" height="104.22"/><rect class="cls-11" x="240.03" y="111.33" width="66.39" height="1.89"/><rect class="cls-5" x="240.03" y="105.96" width="66.39" height="1.9"/><rect class="cls-5" x="240.03" y="100.58" width="14.62" height="1.9"/><rect class="cls-5" x="274.54" y="100.58" width="14.62" height="1.9"/><polygon class="cls-5" points="271.91 102.48 266.92 102.48 257.29 102.48 257.29 100.58 266.92 100.58 271.91 100.58 306.42 100.58 306.42 102.48 271.91 102.48"/><rect class="cls-5" x="240.03" y="95.1" width="31.9" height="1.89"/><rect class="cls-5" x="274.56" y="95.1" width="31.98" height="1.89"/><polygon class="cls-5" points="254.65 86.25 253.57 86.25 240.03 86.25 240.03 84.36 253.57 84.36 254.65 84.36 271.91 84.36 271.91 86.25 254.65 86.25"/><rect class="cls-11" x="274.54" y="84.35" width="14.62" height="1.9"/><rect class="cls-11" x="291.8" y="84.35" width="14.62" height="1.9"/><polygon class="cls-5" points="291.8 89.79 292.88 89.79 306.42 89.79 306.42 91.69 292.88 91.69 291.8 91.69 274.54 91.69 274.54 89.79 291.8 89.79"/><rect class="cls-5" x="257.28" y="89.79" width="14.62" height="1.9"/><rect class="cls-5" x="240.03" y="89.79" width="14.62" height="1.9"/><rect class="cls-11" x="240.03" y="78.7" width="66.39" height="1.9"/><rect class="cls-5" x="240.03" y="73.33" width="66.39" height="1.89"/><rect class="cls-12" x="240.03" y="67.95" width="14.62" height="1.9"/><rect class="cls-11" x="257.29" y="67.95" width="14.62" height="1.9"/><rect class="cls-5" x="274.54" y="67.95" width="14.62" height="1.9"/><rect class="cls-5" x="291.8" y="67.95" width="14.62" height="1.9"/><rect class="cls-5" x="240.03" y="62.47" width="31.9" height="1.89"/><rect class="cls-5" x="274.56" y="62.47" width="31.98" height="1.89"/><rect class="cls-12" x="240.03" y="57.1" width="66.39" height="1.89"/><polygon class="cls-5" points="254.65 53.62 253.57 53.62 240.03 53.62 240.03 51.72 253.57 51.72 254.65 51.72 271.91 51.72 271.91 53.62 254.65 53.62"/><rect class="cls-5" x="274.54" y="51.72" width="14.62" height="1.9"/><rect class="cls-5" x="291.8" y="51.72" width="14.62" height="1.9"/><rect class="cls-5" x="240.03" y="46.07" width="66.39" height="1.9"/><rect class="cls-5" x="240.03" y="40.7" width="66.39" height="1.89"/><rect class="cls-5" x="240.03" y="35.32" width="14.62" height="1.9"/><rect class="cls-11" x="257.29" y="35.32" width="14.62" height="1.9"/><polygon class="cls-5" points="289.17 35.32 283 35.32 274.54 35.32 274.54 37.22 283 37.22 289.17 37.22 306.42 37.22 306.42 35.32 289.17 35.32"/><rect class="cls-5" x="240.03" y="29.84" width="31.9" height="1.89"/><rect class="cls-11" x="157.93" y="29.84" width="66.39" height="1.89"/><rect class="cls-5" x="157.93" y="35.22" width="66.39" height="1.89"/><rect class="cls-5" x="157.93" y="40.59" width="14.62" height="1.9"/><rect class="cls-11" x="175.19" y="40.59" width="14.62" height="1.9"/><rect class="cls-5" x="192.45" y="40.59" width="14.62" height="1.9"/><rect class="cls-12" x="209.71" y="40.59" width="14.62" height="1.9"/><rect class="cls-5" x="157.93" y="46.07" width="31.9" height="1.9"/><rect class="cls-5" x="192.46" y="46.07" width="31.98" height="1.9"/><rect class="cls-5" x="157.93" y="51.45" width="66.39" height="1.89"/><polygon class="cls-11" points="172.56 56.82 171.48 56.82 157.93 56.82 157.93 58.72 171.48 58.72 172.56 58.72 189.81 58.72 189.81 56.82 172.56 56.82"/><rect class="cls-5" x="192.45" y="56.82" width="14.62" height="1.9"/><rect class="cls-5" x="209.71" y="56.82" width="14.62" height="1.9"/><polygon class="cls-12" points="303.26 20.76 297.47 20.76 297.47 20.81 291.78 20.81 291.78 46.66 297.55 40.9 303.26 46.6 303.26 20.76"/></g><g id="folder"><path class="cls-4" d="M240.82,72.5l-0.34-5.4H134.08l-2.48-3.51H96V166a8.91,8.91,0,0,0,7.8,8.83V175H239.05v-0.08a8.91,8.91,0,0,0,7.79-8.83V72.5h-6Z"/><path class="cls-13" d="M231.45,72.5H130.86l-6.31-8.91H88.91V166a8.91,8.91,0,0,0,7.8,8.83V175H232v-0.08a8.91,8.91,0,0,0,7.8-8.83V72.5h-8.35Z"/><polygon class="cls-14" points="130.86 72.5 231.45 72.5 233.78 72.5 233.44 67.1 127.03 67.1 130.86 72.5"/><path class="cls-15" d="M186.23,113.71a21.78,21.78,0,1,0-31.57,19.43v5.4h19.59v-5.4A21.76,21.76,0,0,0,186.23,113.71Z"/><g class="cls-16"><path class="cls-2" d="M145,116.94a21.75,21.75,0,0,1,37.76-14.75,21.76,21.76,0,1,0-34.49,26.22A21.61,21.61,0,0,1,145,116.94Z"/></g><rect class="cls-10" x="153.57" y="138.8" width="21.77" height="13.33"/><polygon class="cls-2" points="175.34 140.04 176.09 139.29 175.34 138.54 153.57 138.54 152.82 139.29 153.57 140.04 175.34 140.04"/><polygon class="cls-2" points="153.57 140.96 152.82 141.71 153.57 142.46 175.34 142.46 176.09 141.71 175.34 140.96 153.57 140.96"/><polygon class="cls-2" points="153.57 143.38 152.82 144.13 153.57 144.87 175.34 144.87 176.09 144.13 175.34 143.38 153.57 143.38"/><polygon class="cls-2" points="153.57 145.79 152.82 146.54 153.57 147.29 175.34 147.29 176.09 146.54 175.34 145.79 153.57 145.79"/><polygon class="cls-2" points="153.57 148.22 152.82 148.96 153.57 149.72 175.34 149.72 176.09 148.96 175.34 148.22 153.57 148.22"/><path class="cls-2" d="M153.57,150.64l-0.75.75,0.75,0.75h3.92a6.92,6.92,0,0,0,13.82,0h4l0.75-.75-0.75-.75H153.57Z"/></g><g id="text_bubble" data-name="text bubble"><polygon class="cls-4" points="15.36 19.02 15.36 81.85 89.62 81.85 105.51 97.73 105.51 81.85 113.23 81.85 113.23 19.02 15.36 19.02"/><polygon class="cls-2" points="109.12 19.02 11.24 19.02 11.24 81.85 85.51 81.85 101.39 97.73 101.39 81.85 109.12 81.85 109.12 19.02"/><rect class="cls-1" x="24.99" y="44.03" width="10.06" height="8.44"/><rect class="cls-17" x="40.07" y="31.91" width="10.06" height="20.55"/><rect class="cls-11" x="55.16" y="38.71" width="10.05" height="13.76"/><rect class="cls-12" x="70.24" y="31.55" width="10.05" height="20.91"/><rect class="cls-13" x="85.33" y="42.88" width="10.05" height="9.59"/><rect class="cls-10" x="25.5" y="58.15" width="69.36" height="2.09"/><rect class="cls-5" x="25.5" y="64.4" width="69.36" height="2.09"/><rect class="cls-5" x="25.5" y="70.66" width="34.16" height="2.1"/></g><g id="glasses"><path class="cls-17" d="M109.14,124.75c-1.45-1.13-13.65-7.68-23.63-10.54,12.13-.38,22-0.67,22-0.67v-4.84S81,110,61.18,111.4C41.39,110,14.9,108.71,14.9,108.71v4.84s9.83,0.29,22,.67c-10,2.87-22.18,9.41-23.63,10.54-1.7,1.32-2.67,2.38-2.33,3.78s3.39,3.1,6,.55,13.92-12.73,26.14-13.37c3.49-.18,10.25-0.44,18.13-0.71,7.87,0.27,14.63.53,18.13,0.71,12.22,0.64,23.51,10.83,26.14,13.37s5.69,0.85,6-.55S110.84,126.07,109.14,124.75Z"/><path class="cls-1" d="M72.08,106.3l0,0H50.2l0,0c-34.64-.58-36.06,1.49-36.06,1.49v1.75a4.35,4.35,0,0,0,0,.79c0,0.63,0,1.53,0,2.41v3.21c1.68,0.71,2.46,3,2.46,3v-0.07c0.43,2.45.8,9.7,3.1,13.53,2.46,4.1,6.59,5.86,15.47,5.86s13.88-1.77,16.81-6.42a79.72,79.72,0,0,0,5.82-12c0.82-1.95,2-3.07,3.36-3.07s2.54,1.12,3.36,3.07a80.11,80.11,0,0,0,5.82,12c2.93,4.66,7.93,6.42,16.81,6.42s13-1.77,15.48-5.86c2.28-3.8,2.67-11,3.09-13.47,0-.06.8-2.33,2.46-3v-8.16S106.72,105.71,72.08,106.3ZM54.86,121.82c-1.62,4.84-3.73,9-6.26,11.31-2.82,2.64-9.46,3.47-13.21,3.47s-8.73-.13-12.29-3.57S18.84,121.82,19,117.1s2.49-7,6.4-7.78a61.2,61.2,0,0,1,14.94-.83,35.15,35.15,0,0,1,13.64,4C55.71,113.58,56.47,117,54.86,121.82ZM99.15,133c-3.55,3.44-8.53,3.57-12.28,3.57s-10.39-.84-13.21-3.47c-2.52-2.36-4.64-6.47-6.26-11.31s-0.86-8.24.84-9.37a35.15,35.15,0,0,1,13.64-4,61.21,61.21,0,0,1,14.94.83c3.91,0.74,6.21,3.06,6.4,7.78S102.71,129.6,99.15,133Z"/><path class="cls-18" d="M54.86,121.82c-1.62,4.84-3.73,9-6.26,11.31-2.82,2.64-9.46,3.47-13.21,3.47s-8.73-.13-12.29-3.57S18.84,121.82,19,117.1s2.49-7,6.4-7.78a61.2,61.2,0,0,1,14.94-.83,35.15,35.15,0,0,1,13.64,4C55.71,113.58,56.47,117,54.86,121.82Z"/><path class="cls-18" d="M99.15,133c-3.55,3.44-8.53,3.57-12.28,3.57s-10.39-.84-13.21-3.47c-2.52-2.36-4.64-6.47-6.26-11.31s-0.86-8.24.84-9.37a35.15,35.15,0,0,1,13.64-4,61.21,61.21,0,0,1,14.94.83c3.91,0.74,6.21,3.06,6.4,7.78S102.71,129.6,99.15,133Z"/></g><g id="phone"><path class="cls-4" d="M80.38,144.76H48.16a4,4,0,0,0-4,4v66.16a4,4,0,0,0,4,4H80.38a4,4,0,0,0,4-4V148.79A4,4,0,0,0,80.38,144.76Z"/><path class="cls-17" d="M76.27,144.76H44a4,4,0,0,0-4,4v66.16a4,4,0,0,0,4,4H76.27a4,4,0,0,0,4-4V148.79A4,4,0,0,0,76.27,144.76Z"/><circle class="cls-1" cx="60.16" cy="213.94" r="3.02"/><rect class="cls-2" x="42.26" y="154.83" width="35.8" height="54.21"/><rect class="cls-1" x="44.5" y="157.01" width="6.15" height="6.15" rx="1.55" ry="1.55"/><rect class="cls-5" x="52.89" y="157.01" width="6.15" height="6.15" rx="1.55" ry="1.55"/><rect class="cls-13" x="61.28" y="157.01" width="6.15" height="6.15" rx="1.55" ry="1.55"/><rect class="cls-11" x="69.66" y="157.01" width="6.15" height="6.15" rx="1.55" ry="1.55"/><rect class="cls-11" x="44.5" y="165.19" width="6.15" height="6.15" rx="1.55" ry="1.55"/><rect class="cls-12" x="52.89" y="165.19" width="6.15" height="6.15" rx="1.55" ry="1.55"/><rect class="cls-5" x="61.28" y="165.19" width="6.15" height="6.15" rx="1.55" ry="1.55"/><rect class="cls-13" x="69.66" y="165.19" width="6.15" height="6.15" rx="1.55" ry="1.55"/><rect class="cls-17" x="44.5" y="173.58" width="6.15" height="6.15" rx="1.55" ry="1.55"/><rect class="cls-13" x="52.89" y="173.58" width="6.15" height="6.15" rx="1.55" ry="1.55"/><rect class="cls-17" x="61.28" y="173.58" width="6.15" height="6.15" rx="1.55" ry="1.55"/><rect class="cls-12" x="69.66" y="173.58" width="6.15" height="6.15" rx="1.55" ry="1.55"/><rect class="cls-12" x="44.5" y="181.84" width="6.15" height="6.15" rx="1.55" ry="1.55"/><rect class="cls-1" x="52.89" y="181.84" width="6.15" height="6.15" rx="1.55" ry="1.55"/><rect class="cls-11" x="61.28" y="181.84" width="6.15" height="6.15" rx="1.55" ry="1.55"/><rect class="cls-5" x="69.6" y="181.84" width="6.15" height="6.15" rx="1.55" ry="1.55"/><rect class="cls-1" x="44.5" y="200.82" width="6.15" height="6.15" rx="1.55" ry="1.55"/><rect class="cls-1" x="52.89" y="200.82" width="6.15" height="6.15" rx="1.55" ry="1.55"/><rect class="cls-1" x="61.28" y="200.82" width="6.15" height="6.15" rx="1.55" ry="1.55"/><rect class="cls-1" x="69.66" y="200.82" width="6.15" height="6.15" rx="1.55" ry="1.55"/></g><g id="pencil"><polygon class="cls-4" points="233.39 138.66 221.87 141.54 218.03 142.5 221.87 143.46 233.39 146.34 325.53 146.34 325.53 142.5 325.53 138.66 233.39 138.66"/><polygon class="cls-17" points="228.86 138.66 228.86 140.5 228.86 142.5 228.86 146.34 321 146.34 321 142.5 321 138.66 228.86 138.66"/><polygon class="cls-1" points="213.5 142.5 217.34 143.46 217.34 141.54 213.5 142.5"/><polygon class="cls-2" points="217.34 143.46 228.86 146.34 228.86 138.66 217.34 141.54 217.34 143.46"/></g><g id="hard_drive" data-name="hard drive"><path class="cls-4" d="M322.49,156.93H242.67a3.15,3.15,0,0,0-3.14,3.14V187H208.85a11.16,11.16,0,0,1-11.15-11.15v-9.94h0.93v-5.2h3.29a0.31,0.31,0,0,0,.31-0.31v-11a0.31,0.31,0,0,0-.31-0.31h-0.69v-9.89a0.3,0.3,0,0,0-.29-0.3h-9a0.3,0.3,0,0,0-.29.3v9.89H191a0.31,0.31,0,0,0-.31.31v11a0.31,0.31,0,0,0,.31.31h3.51v5.2h1v9.94a13.36,13.36,0,0,0,13.35,13.35h30.68v27.26a3.15,3.15,0,0,0,3.14,3.14h79.82a3.15,3.15,0,0,0,3.14-3.14V160.07A3.15,3.15,0,0,0,322.49,156.93Z"/><g id="HDD"><path class="cls-5" d="M187.56,149.1v-9.89a0.3,0.3,0,0,1,.29-0.3h9a0.3,0.3,0,0,1,.3.3v9.89"/><rect class="cls-10" x="188.92" y="141.88" width="2.33" height="2.33"/><rect class="cls-10" x="193.4" y="141.88" width="2.33" height="2.33"/><rect class="cls-17" x="235.42" y="156.93" width="85.98" height="62.64" rx="3.14" ry="3.14"/><path class="cls-12" d="M238.56,156.93h8.12v62.64h-8.12a3.15,3.15,0,0,1-3.14-3.14V160.07A3.15,3.15,0,0,1,238.56,156.93Z"/><path class="cls-12" d="M318.38,156.93h-8.12v62.64h8.12a3.15,3.15,0,0,0,3.14-3.14V160.07A3.15,3.15,0,0,0,318.38,156.93Z"/></g><path class="cls-17" d="M204.74,187a11.16,11.16,0,0,1-11.15-11.15v-9.94h0.93v-5.2h3.29a0.31,0.31,0,0,0,.31-0.31v-11a0.31,0.31,0,0,0-.31-0.31H186.87a0.31,0.31,0,0,0-.31.31v11a0.31,0.31,0,0,0,.31.31h3.51v5.2h1v9.94a13.36,13.36,0,0,0,13.35,13.35h30.68V187H204.74Z"/></g></svg>